Coordinates
version=1
nRows=5
nColumns=55
inDegrees=yes

Units are S.I. units (second, meters, Newtons, ...)
If the header above contains a line with 'inDegrees', this indicates whether rotational values are in degrees (yes) or radians (no).

endheader
time	pelvis_tilt	pelvis_list	pelvis_rotation	pelvis_tx	pelvis_ty	pelvis_tz	hip_flexion_r	hip_adduction_r	hip_rotation_r	knee_angle_r	knee_angle_r_beta	ankle_angle_r	subtalar_angle_r	mtp_angle_r	hip_flexion_l	hip_adduction_l	hip_rotation_l	knee_angle_l	knee_angle_l_beta	ankle_angle_l	subtalar_angle_l	mtp_angle_l	lumbar_extension	lumbar_bending	lumbar_rotation	torso_tx	torso_ty	torso_tz	arm_flex_r	arm_add_r	arm_rot_r	shoulder_rx	shoulder_ry	shoulder_rz	elbow_flex_r	pro_sup_r	wrist_flex_r	wrist_dev_r	arm_flex_l	arm_add_l	arm_rot_l	shoulder_lx	shoulder_ly	shoulder_lz	elbow_flex_l	pro_sup_l	wrist_flex_l	wrist_dev_l	neck_extension	neck_bending	neck_rotation	head_tx	head_ty	head_tz
      8.66000000	     15.11591381	     -2.05607678	     -3.23462591	      0.61073868	      1.02681369	     -0.15793908	    -11.02031347	     -4.04283211	      3.31477076	     83.71053671	      1.46102448	    -13.99946498	    -11.32523083	      5.43952168	      0.56237373	     -0.65055478	     -3.17578407	     21.65588798	      0.37796655	      6.05029203	     -1.47530125	      6.82103439	    -18.68421020	     -0.91018238	      5.96308100	      0.08566311	      0.00411754	     -0.00963825	    -31.80052264	    -22.59228919	      0.96100807	     -0.02865371	     -0.02678354	     -0.02961415	    131.08719977	     33.46828063	     -3.76749143	    -43.49762044	    -39.75885965	    -21.86828961	    -11.77561259	     -0.02385246	     -0.03734999	      0.01764095	    129.39952220	     15.40540698	      6.09748572	    -42.89308161	     15.87716912	      0.89765335	     -5.90493707	      0.01088167	      0.01116227	     -0.00266041
      8.67000000	     15.21313439	      1.40104517	     -4.91266325	      0.60752944	      1.01742245	     -0.15587085	     -8.01634792	     -8.59367315	      4.35014597	     88.85758267	      1.55085738	    -10.37543218	    -12.53258413	      5.07431683	      2.49250453	      3.53333650	     -2.86024017	     28.55990419	      0.49846436	     12.38065327	     -4.65778394	      5.66453224	    -18.95972794	     -5.08130301	      5.92809139	      0.08518871	      0.00367171	     -0.01527455	    -31.66990414	    -22.45648953	     -0.60326543	     -0.03268520	     -0.02769159	     -0.03310242	    128.05153179	     32.85521658	     -3.99293933	    -43.46968293	    -37.52995583	    -22.98151428	    -13.29063195	     -0.02424009	     -0.03616045	      0.02129939	    126.01731997	     14.75952113	      5.88940537	    -42.92593785	     17.01727765	      1.30770014	     -4.14233675	      0.01190406	      0.01239646	     -0.00230966
      8.68000000	     15.45998614	      1.49652793	     -4.37245822	      0.60405519	      1.01231968	     -0.15735829	     -5.40296323	     -8.38555754	      4.58589308	     92.55066632	      1.61531385	    -10.46520004	    -12.48039904	      5.03161330	      1.45536208	      3.65084079	     -3.11222269	     29.32666404	      0.51184685	     12.91493461	     -5.05744419	      5.57478839	    -19.77531137	     -5.23796412	      4.10216327	      0.08464371	      0.00113078	     -0.01307547	    -32.65335326	    -22.13567267	     -0.76575883	     -0.02771553	     -0.03129107	     -0.03308815	    126.45866185	     32.61373339	     -4.13295361	    -43.48630659	    -37.04241002	    -23.47380715	    -13.10966568	     -0.02043374	     -0.03999582	      0.01966685	    125.46602200	     14.66549563	      5.86803836	    -42.86083728	     17.22558988	      1.36542823	     -3.92745491	      0.01075595	      0.01250028	     -0.00166424
      8.69000000	     15.88396397	      1.97881483	     -4.20376233	      0.59975519	      1.00685473	     -0.15823741	     -2.53181759	     -8.74772083	      5.08780593	     96.45833588	      1.68351555	    -10.11852081	    -12.43382192	      4.93918083	      0.60519456	      4.32336332	     -2.84206218	     30.84826325	      0.53840376	     14.18880882	     -5.55908761	      5.34998400	    -20.36414260	     -5.54415725	      2.65451744	      0.08751009	     -0.00132737	     -0.01423895	    -33.62264884	    -21.78150043	     -1.12221054	     -0.02476670	     -0.03242248	     -0.03308399	    123.98891412	     32.24996794	     -4.35134895	    -43.52140190	    -36.09533345	    -24.07439964	    -13.34216806	     -0.01815056	     -0.04424876	      0.02106986	    123.95698889	     14.41290517	      5.78156118	    -42.85276139	     17.54131179	      1.50437248	     -3.53814511	      0.01095214	      0.01358175	     -0.00288911
      8.70000000	     16.22160032	      2.48168277	     -4.06302849	      0.59536870	      1.00259393	     -0.15877847	      0.48496893	     -9.05747010	      5.58854838	     99.64402483	      1.73911631	     -9.50085981	    -12.28107752	      4.81956395	     -0.19470256	      4.96648779	     -2.56239290	     32.40309781	      0.56554074	     15.68599580	     -6.06267400	      5.09123248	    -20.98632575	     -6.25868842	      1.30114764	      0.08938064	     -0.00289228	     -0.01310373	    -34.41592472	    -21.43023797	     -1.51927933	     -0.02188271	     -0.03495529	     -0.03426359	    121.33645436	     31.87771160	     -4.58881249	    -43.56080564	    -34.93189468	    -24.69051451	    -13.49490541	     -0.01474744	     -0.04594495	      0.02122358	    122.16102133	     14.12891160	      5.67395968	    -42.84223721	     17.83729161	      1.68786441	     -3.10753719	      0.01174020	      0.01446448	     -0.00198088
